<?xml version="1.0" encoding="UTF-8" standalone="no"?>
<svg
   xmlns:dc="http://purl.org/dc/elements/1.1/"
   xmlns:cc="http://creativecommons.org/ns#"
   xmlns:rdf="http://www.w3.org/1999/02/22-rdf-syntax-ns#"
   xmlns:svg="http://www.w3.org/2000/svg"
   xmlns="http://www.w3.org/2000/svg"
   xmlns:sodipodi="http://sodipodi.sourceforge.net/DTD/sodipodi-0.dtd"
   xmlns:inkscape="http://www.inkscape.org/namespaces/inkscape"
   width="210mm"
   height="297mm"
   viewBox="0 0 210 297"
   version="1.1"
   id="svg8"
   inkscape:version="1.0.1 (c497b03c, 2020-09-10)"
   sodipodi:docname="wet_noodle_cube.svg"
   inkscape:export-filename="/Users/joefields/Desktop/wet_noodle_cube.png"
   inkscape:export-xdpi="144"
   inkscape:export-ydpi="144">
  <defs
     id="defs2" />
  <sodipodi:namedview
     id="base"
     pagecolor="#ffffff"
     bordercolor="#666666"
     borderopacity="1.0"
     inkscape:pageopacity="0.0"
     inkscape:pageshadow="2"
     inkscape:zoom="0.98994949"
     inkscape:cx="372.20105"
     inkscape:cy="434.78197"
     inkscape:document-units="mm"
     inkscape:current-layer="layer1"
     inkscape:document-rotation="0"
     showgrid="false"
     inkscape:snap-global="false"
     inkscape:window-width="1521"
     inkscape:window-height="981"
     inkscape:window-x="0"
     inkscape:window-y="25"
     inkscape:window-maximized="0" />
  <metadata
     id="metadata5">
    <rdf:RDF>
      <cc:Work
         rdf:about="">
        <dc:format>image/svg+xml</dc:format>
        <dc:type
           rdf:resource="http://purl.org/dc/dcmitype/StillImage" />
        <dc:title></dc:title>
      </cc:Work>
    </rdf:RDF>
  </metadata>
  <g
     inkscape:label="Layer 1"
     inkscape:groupmode="layer"
     id="layer1">
    <path
       style="fill:none;stroke:#000000;stroke-width:0.603999;stroke-dashoffset:3.93071"
       d="m 177.64881,70.303572 c -3.02381,15.371029 -8.81095,11.398776 -9.07143,46.113088 l 6.80357,35.52976 c 2.26786,10.20536 -1.5119,39.30953 -1.5119,39.30953"
       id="path837"
       sodipodi:nodetypes="cccc" />
    <path
       style="fill:none;stroke:#000000;stroke-width:0.603999;stroke-dashoffset:3.93071"
       d="m 34.395833,73.705357 c 0,0 7.937501,37.419643 7.937501,56.696423 0,25.32441 -4.15774,53.67262 -4.15774,53.67262"
       id="path843"
       sodipodi:nodetypes="ccc" />
    <path
       style="font-variation-settings:normal;opacity:1;vector-effect:none;fill:#040305;fill-opacity:1;fill-rule:evenodd;stroke:#ffffff;stroke-width:0.104;stroke-linecap:butt;stroke-linejoin:miter;stroke-miterlimit:4;stroke-dasharray:0, 1.144;stroke-dashoffset:0;stroke-opacity:1;stop-color:#000000;stop-opacity:1"
       id="path849-9"
       sodipodi:type="arc"
       sodipodi:cx="177.73424"
       sodipodi:cy="71.360962"
       sodipodi:rx="2.4987676"
       sodipodi:ry="2.620939"
       sodipodi:start="0"
       sodipodi:end="6.2096699"
       sodipodi:open="true"
       sodipodi:arc-type="arc"
       d="m 180.23301,71.360962 a 2.4987676,2.620939 0 0 1 -2.45285,2.620496 2.4987676,2.620939 0 0 1 -2.543,-2.524178 2.4987676,2.620939 0 0 1 2.35937,-2.713274 2.4987676,2.620939 0 0 1 2.62973,2.42445"
       inkscape:transform-center-x="-0.26726953"
       inkscape:transform-center-y="0.53453906" />
    <path
       style="font-variation-settings:normal;opacity:1;vector-effect:none;fill:#040305;fill-opacity:1;fill-rule:evenodd;stroke:#ffffff;stroke-width:0.104;stroke-linecap:butt;stroke-linejoin:miter;stroke-miterlimit:4;stroke-dasharray:0, 1.144;stroke-dashoffset:0;stroke-opacity:1;stop-color:#000000;stop-opacity:1"
       id="path849-5"
       sodipodi:type="arc"
       sodipodi:cx="173.45792"
       sodipodi:cy="191.89952"
       sodipodi:rx="2.4987676"
       sodipodi:ry="2.620939"
       sodipodi:start="0"
       sodipodi:end="6.2096699"
       sodipodi:open="true"
       sodipodi:arc-type="arc"
       d="m 175.95668,191.89952 a 2.4987676,2.620939 0 0 1 -2.45284,2.6205 2.4987676,2.620939 0 0 1 -2.543,-2.52418 2.4987676,2.620939 0 0 1 2.35937,-2.71328 2.4987676,2.620939 0 0 1 2.62972,2.42445"
       inkscape:transform-center-x="-0.26726953"
       inkscape:transform-center-y="0.53453906" />
    <path
       style="font-variation-settings:normal;opacity:1;vector-effect:none;fill:#040305;fill-opacity:1;fill-rule:evenodd;stroke:#ffffff;stroke-width:0.104;stroke-linecap:butt;stroke-linejoin:miter;stroke-miterlimit:4;stroke-dasharray:0, 1.144;stroke-dashoffset:0;stroke-opacity:1;stop-color:#000000;stop-opacity:1"
       id="path849-8"
       sodipodi:type="arc"
       sodipodi:cx="38.754082"
       sodipodi:cy="184.68324"
       sodipodi:rx="2.4987676"
       sodipodi:ry="2.620939"
       sodipodi:start="0"
       sodipodi:end="6.2096699"
       sodipodi:open="true"
       sodipodi:arc-type="arc"
       d="m 41.252849,184.68324 a 2.4987676,2.620939 0 0 1 -2.452845,2.6205 2.4987676,2.620939 0 0 1 -2.543002,-2.52418 2.4987676,2.620939 0 0 1 2.359376,-2.71327 2.4987676,2.620939 0 0 1 2.629722,2.42445"
       inkscape:transform-center-x="-0.26726953"
       inkscape:transform-center-y="0.53453906" />
    <path
       style="font-variation-settings:normal;opacity:1;vector-effect:none;fill:#040305;fill-opacity:1;fill-rule:evenodd;stroke:#ffffff;stroke-width:0.104;stroke-linecap:butt;stroke-linejoin:miter;stroke-miterlimit:4;stroke-dasharray:0, 1.144;stroke-dashoffset:0;stroke-opacity:1;stop-color:#000000;stop-opacity:1"
       id="path849-7"
       sodipodi:type="arc"
       sodipodi:cx="34.745037"
       sodipodi:cy="74.568199"
       sodipodi:rx="2.4987676"
       sodipodi:ry="2.620939"
       sodipodi:start="0"
       sodipodi:end="6.2096699"
       sodipodi:open="true"
       sodipodi:arc-type="arc"
       d="m 37.243805,74.568199 a 2.4987676,2.620939 0 0 1 -2.452846,2.620497 2.4987676,2.620939 0 0 1 -2.543002,-2.524179 2.4987676,2.620939 0 0 1 2.359376,-2.713274 2.4987676,2.620939 0 0 1 2.629722,2.42445"
       inkscape:transform-center-x="-0.26726953"
       inkscape:transform-center-y="0.53453906" />
    <path
       style="font-variation-settings:normal;opacity:1;vector-effect:none;fill:#040305;fill-opacity:1;fill-rule:evenodd;stroke:#ffffff;stroke-width:0.104;stroke-linecap:butt;stroke-linejoin:miter;stroke-miterlimit:4;stroke-dasharray:0, 1.144;stroke-dashoffset:0;stroke-opacity:1;stop-color:#000000;stop-opacity:1"
       id="path849-4"
       sodipodi:type="arc"
       sodipodi:cx="80.982666"
       sodipodi:cy="115.99497"
       sodipodi:rx="2.4987676"
       sodipodi:ry="2.620939"
       sodipodi:start="0"
       sodipodi:end="6.2096699"
       sodipodi:open="true"
       sodipodi:arc-type="arc"
       d="m 83.481434,115.99497 a 2.4987676,2.620939 0 0 1 -2.452846,2.6205 2.4987676,2.620939 0 0 1 -2.543002,-2.52418 2.4987676,2.620939 0 0 1 2.359376,-2.71327 2.4987676,2.620939 0 0 1 2.629722,2.42445"
       inkscape:transform-center-x="-0.26726953"
       inkscape:transform-center-y="0.53453906" />
    <path
       style="font-variation-settings:normal;opacity:1;vector-effect:none;fill:#040305;fill-opacity:1;fill-rule:evenodd;stroke:#ffffff;stroke-width:0.104;stroke-linecap:butt;stroke-linejoin:miter;stroke-miterlimit:4;stroke-dasharray:0, 1.144;stroke-dashoffset:0;stroke-opacity:1;stop-color:#000000;stop-opacity:1"
       id="path849-53"
       sodipodi:type="arc"
       sodipodi:cx="78.844513"
       sodipodi:cy="143.52374"
       sodipodi:rx="2.4987676"
       sodipodi:ry="2.620939"
       sodipodi:start="0"
       sodipodi:end="6.2096699"
       sodipodi:open="true"
       sodipodi:arc-type="arc"
       d="m 81.343281,143.52374 a 2.4987676,2.620939 0 0 1 -2.452846,2.6205 2.4987676,2.620939 0 0 1 -2.543002,-2.52418 2.4987676,2.620939 0 0 1 2.359376,-2.71327 2.4987676,2.620939 0 0 1 2.629722,2.42445"
       inkscape:transform-center-x="-0.26726953"
       inkscape:transform-center-y="0.53453906" />
    <path
       style="font-variation-settings:normal;opacity:1;vector-effect:none;fill:#040305;fill-opacity:1;fill-rule:evenodd;stroke:#ffffff;stroke-width:0.104;stroke-linecap:butt;stroke-linejoin:miter;stroke-miterlimit:4;stroke-dasharray:0, 1.144;stroke-dashoffset:0;stroke-opacity:1;stop-color:#000000;stop-opacity:1"
       id="path849-95"
       sodipodi:type="arc"
       sodipodi:cx="114.65863"
       sodipodi:cy="143.791"
       sodipodi:rx="2.4987676"
       sodipodi:ry="2.620939"
       sodipodi:start="0"
       sodipodi:end="6.2096699"
       sodipodi:open="true"
       sodipodi:arc-type="arc"
       d="m 117.1574,143.791 a 2.4987676,2.620939 0 0 1 -2.45285,2.6205 2.4987676,2.620939 0 0 1 -2.543,-2.52418 2.4987676,2.620939 0 0 1 2.35938,-2.71328 2.4987676,2.620939 0 0 1 2.62972,2.42445"
       inkscape:transform-center-x="-0.26726953"
       inkscape:transform-center-y="0.53453906" />
    <path
       style="font-variation-settings:normal;opacity:1;vector-effect:none;fill:#040305;fill-opacity:1;fill-rule:evenodd;stroke:#ffffff;stroke-width:0.104;stroke-linecap:butt;stroke-linejoin:miter;stroke-miterlimit:4;stroke-dasharray:0, 1.144;stroke-dashoffset:0;stroke-opacity:1;stop-color:#000000;stop-opacity:1"
       id="path849-71"
       sodipodi:type="arc"
       sodipodi:cx="120.27129"
       sodipodi:cy="115.19317"
       sodipodi:rx="2.4987676"
       sodipodi:ry="2.620939"
       sodipodi:start="0"
       sodipodi:end="6.2096699"
       sodipodi:open="true"
       sodipodi:arc-type="arc"
       d="m 122.77006,115.19317 a 2.4987676,2.620939 0 0 1 -2.45284,2.6205 2.4987676,2.620939 0 0 1 -2.54301,-2.52418 2.4987676,2.620939 0 0 1 2.35938,-2.71328 2.4987676,2.620939 0 0 1 2.62972,2.42445"
       inkscape:transform-center-x="-0.26726953"
       inkscape:transform-center-y="0.53453906" />
    <path
       style="fill:none;fill-opacity:1;stroke:#000000;stroke-width:0.603999;stroke-dashoffset:3.93071"
       d="m 37.237056,74.375692 c 0,0 10.871459,6.339705 20.225892,15.426869 0,0 3.207235,4.009043 6.1472,9.354434 8.819895,7.750815 19.864535,16.645465 19.864535,16.645465"
       id="path908"
       sodipodi:nodetypes="cccc" />
    <path
       style="fill:none;fill-opacity:1;stroke:#000000;stroke-width:0.603999;stroke-dashoffset:3.93071"
       d="m 80.715397,116.26224 -2.138156,26.99422"
       id="path910" />
    <path
       style="fill:none;fill-opacity:1;stroke:#000000;stroke-width:0.603999;stroke-dashoffset:3.93071"
       d="m 82.319012,115.7277 21.381568,-2.93996 17.10524,2.13815"
       id="path912" />
    <path
       style="fill:none;fill-opacity:1;stroke:#000000;stroke-width:0.603999;stroke-dashoffset:3.93071"
       d="m 121.07309,116.52951 -6.41446,26.72695"
       id="path914" />
    <path
       style="fill:none;fill-opacity:1;stroke:#000000;stroke-width:0.603999;stroke-dashoffset:3.93071"
       d="M 79.913587,143.791 H 113.85682"
       id="path916" />
    <path
       style="fill:none;fill-opacity:1;stroke:#000000;stroke-width:0.603999;stroke-dashoffset:3.93071"
       d="m 78.577241,143.25646 c 0,0 -6.681738,16.30345 -10.690781,19.77795 -10.423512,9.88897 -28.33057,21.11429 -28.33057,21.11429"
       id="path918"
       sodipodi:nodetypes="ccc" />
    <path
       style="fill:none;fill-opacity:1;stroke:#000000;stroke-width:0.603999;stroke-dashoffset:3.93071"
       d="m 114.9259,143.791 c 10.33442,5.96902 15.70366,4.98528 29.39964,22.71791 4.00904,4.81085 4.00905,7.75082 8.55263,11.75986 l 19.51067,13.09621"
       id="path920"
       sodipodi:nodetypes="cccc" />
    <path
       style="fill:none;fill-opacity:1;stroke:#000000;stroke-width:0.603999;stroke-dashoffset:3.93071"
       d="m 121.07309,114.92589 c 0,0 13.36348,-17.907053 20.57976,-23.519713 9.6217,-6.147199 35.81411,-19.777945 35.81411,-19.777945"
       id="path922"
       sodipodi:nodetypes="ccc" />
    <path
       style="fill:none;fill-opacity:1;stroke:#000000;stroke-width:0.603999;stroke-dashoffset:3.93071"
       d="m 34.2105,74.835466 c 0,0 30.201454,-4.276313 37.685001,-4.009043 11.22532,-0.26727 12.828939,7.750818 25.657876,6.68174 9.621703,0.26727 23.519713,-9.087166 40.357693,-7.750818 l 39.82316,0.801809"
       id="path924"
       sodipodi:nodetypes="ccccc" />
    <path
       style="fill:none;fill-opacity:1;stroke:#000000;stroke-width:0.603999;stroke-dashoffset:3.93071"
       d="m 39.02135,186.28686 c 0,0 40.09043,1.60362 48.910324,1.33635 10.690781,1.33635 30.468726,-4.00905 30.468726,-4.00905 17.90706,1.33635 22.98518,10.69078 32.33961,11.75986 l 21.9161,-3.4745"
       id="path926"
       sodipodi:nodetypes="ccccc" />
  </g>
</svg>
